<svg xmlns="http://www.w3.org/2000/svg" width="1183.6" height="1137.8"><style>.st0{fill:#eeedee}.st2{fill:none}.st11{fill:#791d2c}.st22{fill:#e4c9c2}.st23{fill:#df7d56}.st27{fill:#5a142a}.st37{fill:#e6e3f4}</style><g id="background"><g id="general"><g id="figure1"><path class="st0" d="M607.7 238.5c-2.9 10.6-8.6 17.5-18.2 25-6 4.7-13.5 9.6-22.8 15.7-2.1 1.4-4.4 2.9-6.7 4.5-4.9 3.3-10.3 6.9-16.1 11.1-4.8 3.4-9.9 7.1-15.3 11.2 0 0-21.9 16.5-59.4 52.6-3.5 3.4-7.2 7-11 10.7L445 382.5l-1.8 1.8c-4.2 4.3-8.6 8.8-13.1 13.5-48.5 50.4-68.1 102-81.3 146.1-1.8 6-3.5 11.8-5.1 17.5-10.8 37.8-18.8 68.7-40.7 86.3-3.6 2.9-7.5 5.4-11.9 7.5-3.9 1.9-8 3.4-12.3 4.6-30.2 8.4-69.8-.2-108.7-20.8-6.1-3.2-12.2-6.7-18.2-10.5-10.6-6.6-21-14.1-31-22.3-5-4.1-10-8.5-14.8-13-15.1-14-28.9-29.7-40.7-46.7-5.7-8.1-10.9-16.5-15.5-25.2-3.4-6.4-6.5-12.9-9.3-19.5-4.1-9.8-7.5-19.9-10-30.1-2-8-3.4-16-4.3-24.2-.1-.8-.2-1.5-.2-2.3-.4-4.1-.6-8.1-.7-12.3-1.8-79.6 53.1-137.7 113.6-193.2 5.9-5.5 11.9-10.9 18-16.3l3.3-3c5.2-4.7 16.3-14.7 31.8-27.4 3.9-3.1 8-6.5 12.4-9.9 30.9-24.2 74.3-54.6 122.3-76.4 6.3-2.9 12.7-5.6 19.1-8.1 22.8-9 46.3-15.7 69.8-18.7 5-.7 10.1-1.1 15.1-1.4 15.4-.9 30.7 0 45.7 3 4.8 1 9.6 2.2 14.3 3.6 8.6 2.6 17 6 25.3 10.3 1.3.7 2.6 1.3 3.9 2.1 3.4 1.9 6.8 3.9 10.1 6.1 21.2 13.8 40.6 33.1 54.9 53.9 3.4 4.9 6.5 9.9 9.3 15 2.3 4.2 4.4 8.4 6.3 12.6 3.8 8.6 6.5 17.2 7.9 25.5.3 1.8.6 3.7.8 5.5 0 .5.1.9.1 1.4.6 7.3.1 14.4-1.7 21z"/><path d="M600.5 185c0 .1-.1.2-.1.4-.9 3.1-1.9 6.2-2.8 9.3-7.4 24.2-15.9 48-25.3 71.3-1.8 4.4-3.6 8.8-5.5 13.2-.2.4-.3.8-.5 1.2 9.2-6.1 16.8-11 22.8-15.7.2-.4.3-.8.5-1.2 6.8-17.4 13.1-35 18.9-52.8v-.1c-1.5-8.3-4.2-16.9-8-25.6zM585 157.5c-.1.1-.1.2-.2.4-14.3 26-25.3 54.1-32.4 83.6-4.2 17.4-7 35.3-8.4 53.3 0 .3-.1.6-.1.9 5.8-4.1 11.2-7.8 16.1-11 0-.3.1-.6.1-.9 3.9-33.6 13.2-66.5 27-96.8 2.2-4.8 4.5-9.5 6.9-14.2 0-.1.1-.2.2-.3-2.7-5.1-5.8-10.1-9.2-15zm-65.1-60.1l-3.9-2.1c0 .2-.1.5-.1.7l-.2 1.7c-3.7 31-8.8 61.8-15 92.2-10.9 53.6-25.5 106.3-43.8 157.5-.2-8.5-.1-17 0-25.1 1-53.7 7.6-107.7 17-160.3 4.4-24.9 9.1-51.2 16.5-76.3.1-.2.1-.5.2-.7-4.7-1.4-9.5-2.7-14.3-3.6l-.2.7c-5.9 20.3-10.2 41.3-14.1 61.9-11 57.7-18.7 117.2-20 176.2-.3 14.7-.1 29.4 1.1 44 .4 5.2.9 10.6 1.5 16-.5 1.3-1 2.7-1.6 4-.2.5-.4 1-.6 1.4 9.4-9.5 18.1-18.2 26.2-25.9.2-.4.3-.9.5-1.3 8.2-23 15.8-46.2 22.6-69.6 17.6-60.2 30.3-122 38.1-184.7 0-.2.1-.5.1-.7-3.2-2-6.6-4.1-10-6zM213 210.5c-2-8.9-4.6-18.2-8.3-26.8l-.3-.6c-4.4 3.4-8.5 6.8-12.4 9.9l.3.6c9.8 23.9 10.9 51.7 11.6 77.3.8 29.4.3 58.8-2 88.1-4.4 57-16 114.3-39.1 165.9-3.2 7.1-6.5 14.1-10.1 20.9-1.4-12.2-2.6-24.4-3.8-36.4-6.2-64.8-8.2-130.3-3.4-195.3 2.2-30.1 5.8-60.1 11.2-89.8.1-.3.1-.7.2-1-6 5.4-12 10.9-18 16.3-.1.3-.1.7-.2 1-.5 2.9-.9 5.9-1.3 8.8-5.1 35.3-8 70.9-9.1 106.5-2.1 70.5 2.7 141.2 12.2 210.9-5.6 8.5-12.1 16.6-20.4 21.8-4.9 3.1-9.7 4.4-14.2 4.4h-.8c4.9 4.6 9.9 9 15 13.2.2-.1.4-.2.6-.2 8.5-3.8 16.2-10.2 22.9-17.9 2.2 13.5 4.8 26.9 8 40.2.1.3.1.6.2.9 6 3.8 12.1 7.3 18.2 10.5-.1-.3-.2-.6-.2-.9-6.4-21.9-10.7-44.7-14-67.6 14.7-23.4 25.8-50.1 34.8-76.7 20.1-59.7 27.6-123.9 28.4-187.3.6-31.8.8-65.3-6-96.7zM105.8 343c-.8-12.6-3.3-31.6-18.9-29.9-6.9.8-12.2 6.7-16.5 12.2-4.6 5.9-8.6 12.3-12 19.2-13.8 28.2-18.8 61.9-20.5 93.5-1 18.3-.5 36.8 1.4 55.1-3.3-6-6.3-13.7-8.9-21.2-.1-.4-.2-.7-.4-1.1 6.5 27.4 19.1 53.5 35.6 77.2-.1-.4-.3-.8-.4-1.2-1.8-5.8-3.3-11.8-4.7-17.8-.7-3-1.3-5.9-1.9-8.9 11.5-4.7 17.4-19.5 22.2-30.9 6.4-15.2 11.7-30.9 15.7-47 8.1-32.2 11.3-66 9.3-99.2zM91 377.2c-.7 15.6-2.6 31-5.7 46.2-2.9 14.7-6.9 29.1-11.9 43-2.4 6.6-5 13.1-7.8 19.5-2.5 5.7-5.1 12.4-9.6 16.6-.1.1-.2.2-.3.2-1.1-7.4-1.9-14.8-2.4-22.2-2.2-30.9-.3-62.2 6.3-92.3 3-13.7 7.1-27.3 13.7-39.5 2.9-5.5 6.3-10.6 10.3-15.2.6-.7 3.5-4.5 4.5-4.3.5.1 1.4 3.6 1.7 4.9 2.7 13.8 1.9 29.2 1.2 43.1zm339.8-298v-.8c-5 .3-10.1.8-15.1 1.4v.8c.3 6 .3 12.1.4 18.1.1 33.7-3.3 67.3-7.1 100.6-3.7 32.1-8.4 64.1-14 95.9-11.2 64-26.1 127.2-44.5 189.2-5.8 19.3-11.9 38.6-18.7 57.6-6.2-3.8-11-10.7-14.6-17.4-12.9-24.3-18.4-54.8-21-82.5-2.9-30.9-2-62 .2-92.9 2.2-30.8 5.4-61.5 9.9-91.9 7.9-53.8 19.9-107.5 39.2-157.8.1-.3.2-.6.4-1-6.4 2.5-12.8 5.3-19.1 8.1-.1.3-.2.6-.4 1-3.5 9.8-6.7 19.8-9.7 29.8-19.2 64.3-28.7 131.7-34.3 199-2.8 33.5-4.3 67.3-1.6 100.8 2.6 31.7 8.3 65.4 22.4 93.6 5.4 10.8 12.9 20.9 23 26.4-11.8 31.6-25.3 62.4-41.4 91.7-2 3.6-4 7.2-6 10.7-.2.3-.3.6-.5.9 4.5-1.2 8.9-2.8 12.9-4.8s7.7-4.3 11.1-6.9c.2-.5.5-.9.8-1.4 5.8-11.1 11.3-22.4 16.4-33.8 7.7-17.2 14.9-34.7 21.5-52.4h3.1c1.6-5.7 3.3-11.6 5.1-17.6-.1 0-.2.1-.3.1-.6.2-1.1.4-1.7.5 13.7-39 25.2-79.1 35.4-119.2 17.5-68.8 30.8-139 39.5-209.8 4.5-36.1 8.5-72.5 9-108.9 0-8.3.2-17.6-.3-27.1z" opacity=".42" fill="#bdd3de"/><path class="st2" d="M607.8 239.3c-3 10.8-8.8 17.8-18.7 25.4-6 4.7-13.6 9.6-22.8 15.7-2 1.3-4.1 2.7-6.3 4.2-4.9 3.3-10.3 6.9-16.1 11-4.7 3.4-9.8 7-15.2 11.1 0 0-22.1 16.7-60 53.1-8 7.7-16.8 16.3-26.2 25.9-4 4.1-8.2 8.4-12.5 12.8-48.2 50.1-67.8 101.3-81.1 145.2-1.8 6-3.5 11.9-5.1 17.6-11 38.7-19.1 70.1-41.8 87.7-3.4 2.6-7 4.9-11.1 6.9s-8.4 3.6-12.9 4.8c-30.1 8.1-69.3-.5-107.9-20.9-6.1-3.2-12.2-6.7-18.2-10.5-10.8-6.8-21.5-14.5-31.8-22.9-5.1-4.2-10.2-8.6-15-13.2-14.6-13.7-28-29-39.6-45.4-16.5-23.6-29.1-49.7-35.6-77.2-1.8-7.6-3.1-15.3-3.9-23-.1-.8-.2-1.5-.2-2.3-.3-3.8-.5-7.6-.6-11.5-1.7-79.5 53.1-137.6 113.5-193 5.9-5.5 11.9-10.9 17.9-16.3 1.2-1.1 2.4-2.1 3.6-3.2 5.2-4.7 16.4-14.8 32-27.5 3.9-3.1 8-6.5 12.4-9.9 30.8-24.2 74-54.3 121.6-76 6.3-2.9 12.7-5.6 19.1-8.1 22.9-9.1 46.6-15.9 70.2-18.9 5-.6 10.1-1.1 15.1-1.4 15.3-.9 30.5 0 45.4 3 4.8 1 9.6 2.2 14.3 3.6 8.6 2.6 17.1 6 25.4 10.3 1.3.7 2.7 1.4 4 2.1 3.4 1.9 6.7 3.9 10 6 21.1 13.7 40.5 32.9 54.8 53.6 3.4 4.9 6.5 9.9 9.3 14.9 2.3 4.2 4.5 8.4 6.3 12.6 3.8 8.5 6.5 17.1 8 25.3.3 1.8.6 3.6.8 5.4 0 .5.1.9.1 1.4 1.1 7.4.7 14.8-1.2 21.6z"/></g><path id="figure2" class="st0" d="M838.6 293.8c94.5 94.2 75.9 274.4 41.9 378-37.2 113.5-107.3 178.9-129.1 198.1-146.2 128.1-386 154.9-452.1 52.5-34.7-53.8-31.2-155.7 10-196.1 20.9-20.4 36.6-10.6 60.3-35.9 26.1-27.8 18.5-51.8 45.2-129.8 16.1-47.1 24.2-70.7 42.7-88.4 32.6-31.2 56.3-14.7 85.4-44.2 29.1-29.5 15-55.6 41.3-103.3 2.1-3.8 39.9-69.3 105.7-84.1 76.3-17.1 140.5 45 148.7 53.2z"/><g id="circle"><linearGradient id="SVGID_1_" gradientUnits="userSpaceOnUse" x1="543.423" y1="597.265" x2="605.738" y2="597.265" gradientTransform="rotate(23.373 1062.604 229.173)"><stop offset="0" stop-color="#f4dba9"/><stop offset=".998" stop-color="#f0e2e2"/></linearGradient><ellipse cx="468.6" cy="373.5" rx="30.7" ry="33.7" fill="url(#SVGID_1_)"/><linearGradient id="SVGID_2_" gradientUnits="userSpaceOnUse" x1="1416.883" y1="931.589" x2="1548.856" y2="931.589" gradientTransform="rotate(-21.624 1036.054 2119.865)"><stop offset="0" stop-color="#f4dba9"/><stop offset=".998" stop-color="#f0e2e2"/></linearGradient><ellipse cx="1013.6" cy="850.5" rx="65.1" ry="71.5" fill="url(#SVGID_2_)"/></g><g id="squares"><linearGradient id="SVGID_3_" gradientUnits="userSpaceOnUse" x1="622.194" y1="1378.52" x2="658.579" y2="1378.52" gradientTransform="rotate(12.041 3017.69 -1174.133)"><stop offset=".002" stop-color="#f0e2e2"/><stop offset="1" stop-color="#f4dba9"/></linearGradient><path fill="url(#SVGID_3_)" d="M173.8 849.6l-34.7-8.1 7.4-38.2 34.7 8.1z"/><linearGradient id="SVGID_4_" gradientUnits="userSpaceOnUse" x1="617" y1="17.462" x2="651.638" y2="17.462" gradientTransform="rotate(30 769.905 976.108)"><stop offset=".002" stop-color="#f0e2e2"/><stop offset="1" stop-color="#f4dba9"/></linearGradient><path fill="url(#SVGID_4_)" d="M1137.8 102.5l-28.1-17.8 16.2-30.9 28.1 17.8z"/></g><path d="M1098.1 1130.1c-186-97.8-322.5-96.3-413.3-76.2-126 27.9-179.4 86.4-290.7 83.9C254.8 1134.6 143.7 1034 72.4 951c6.2-14.6 12.4-29.1 18.6-43.7 62.2 81.3 161.4 182.7 291.3 192.9 111.7 8.8 170-52.8 296.6-84 95-23.4 235-26.1 426.3 72.1-2.4 14-4.7 27.9-7.1 41.8zM744.2 109.3C633.1 77.7 558.7 94.6 511 116.2c-72.8 33.1-95.9 67.4-150.7 80-58.4 13.4-148.9-4.5-284.7-156.6 5.8-7.1 11.7-14.1 17.5-21.2C211.7 157 295.6 177.1 351.8 167.2c62.5-11 87-58.5 170-86.1 85.6-28.5 166.2-13.4 222.3 4.6 0 7.9.1 15.7.1 23.6z" fill="#ebdede" id="lines"/><g id="figure3"><path class="st0" d="M940.9 8.6c164.6 16.8 297.5 504.7 194.5 622.8-37.3 42.8-113.4 46-154.4 7.9-71.1-66.2 6.7-217-71.8-349-52.8-88.8-126.3-85.1-127.1-142.5-1-63.1 86.1-146.7 158.8-139.2z"/><path d="M1041.6 77.7l-8.7 18c-3.1 6.4-10.4 8.9-16.2 5.5l-.7-.4c-5.8-3.4-8.1-11.4-5-17.8l12.7-26.4c6.1 6.5 12 13.5 17.9 21.1zm24.7 196.1l-.7-.4c-5.8-3.4-8.1-11.4-5-17.8l17-35.5c3.1-6.4 10.4-8.9 16.2-5.5l.7.4c5.8 3.4 8.1 11.4 5 17.8l-17 35.5c-3 6.4-10.3 8.9-16.2 5.5zm-71.2-34.2l-.7.5c-5.3 4.3-12.9 3.1-16.8-2.8L956 205c-3.9-5.8-2.8-14.1 2.5-18.4l.7-.5c5.3-4.3 12.9-3.1 16.8 2.8l21.7 32.3c3.9 5.8 2.7 14.1-2.6 18.4zm26.1 303.7l-.7.5c-5.3 4.3-12.9 3.1-16.8-2.8L982 508.7c-3.9-5.8-2.8-14.1 2.5-18.4l.7-.5c5.3-4.3 12.9-3.1 16.8 2.8l21.7 32.3c3.9 5.8 2.8 14.1-2.5 18.4zm70.9 97.4l-.8-.2c-6.4-1.9-10.2-9.1-8.5-16.1l9.3-38.8c1.7-7 8.3-11.2 14.7-9.4l.8.2c6.4 1.9 10.2 9.1 8.5 16.1l-9.3 38.8c-1.8 7-8.4 11.2-14.7 9.4zm-84.7 9l-1.5 6c-8-3.7-15.5-8.4-22.2-14.1 2.1-6.4 8.3-10.1 14.4-8.3l.8.2c6.4 1.9 10.2 9.2 8.5 16.2zm87.2-286.7l.5.7c3.9 5.8 2.8 14.1-2.5 18.4l-29.4 23.8c-5.3 4.3-12.9 3.1-16.8-2.8l-.5-.7c-3.9-5.8-2.8-14.1 2.5-18.4l29.4-23.8c5.3-4.3 12.9-3.1 16.8 2.8zm77 123l-22.2 18c-5.3 4.3-12.9 3.1-16.8-2.8l-.5-.7c-3.9-5.8-2.8-14.1 2.5-18.4l29.4-23.8c1.9-1.6 4.2-2.4 6.4-2.5.7 10.2 1.1 20.3 1.2 30.2zM976.7 340.7l-.1.9c-.8 7.2-6.9 12.3-13.4 11.4l-28.6-4.1c-2.7-9.2-5.9-18.4-9.7-27.6 1.7-.6 3.5-.8 5.3-.6l36.2 5.1c6.5 1.1 11.2 7.8 10.3 14.9zM877 162l-.1.9c-.8 7.2-6.9 12.3-13.4 11.4l-36.2-5.1c-6.5-.9-11.2-7.6-10.4-14.8l.1-.9c.8-7.2 6.9-12.3 13.4-11.4l36.2 5.1c6.6 1 11.3 7.6 10.4 14.8zm64.1-75l-.8.3c-6.3 2.1-13-1.9-14.9-8.8L914.9 40c-1.9-6.9 1.7-14.3 8-16.4l.8-.3c6.3-2.1 13 1.9 14.9 8.8l10.5 38.4c1.9 7-1.7 14.4-8 16.5z" opacity=".5" fill="#fff"/><path class="st2" d="M1135.4 631.3c-30.6 35.1-87.4 43.6-129.4 24.4-8-3.7-15.5-8.4-22.2-14.1-.9-.8-1.8-1.6-2.8-2.4-60.8-56.5-12.9-174.7-46.4-290.2-2.7-9.2-5.9-18.4-9.7-27.6-4.4-10.5-9.5-20.9-15.7-31.2-52.8-88.8-126.3-85.1-127.1-142.5-1-62.9 86.1-146.5 158.8-139.1 28.9 3 56.9 20.5 82.8 48 6.1 6.5 12.1 13.5 17.9 21.1 69.5 89.6 120.6 249.1 128.8 378 .7 10.3 1 20.4 1.1 30.3.7 62.9-10.3 115.7-36.1 145.3z"/></g></g></g><g id="main"><g id="general_1_"><g id="search_bar"><linearGradient id="SVGID_5_" gradientUnits="userSpaceOnUse" x1="604.155" y1="1102.958" x2="594.94" y2="738.936" gradientTransform="matrix(.9825 -.07659 .07772 .997 -63.587 42.253)"><stop offset=".428" stop-color="#d3e0df"/><stop offset=".688" stop-color="#d5e1df"/><stop offset=".938" stop-color="#f1f0e2"/></linearGradient><path d="M875.8 979.6c-.8.5-1.7 1.1-2.5 1.7-20.1 15.9-40.7 24.2-61.2 24.8-13.6.4-25-2.8-35.6-8.6-15-8.2-28.4-21.6-44.5-37.7-24.6-24.6-52.5-52.5-94.9-70.7-55-23.7-96.7-13.9-130.2-6.1-32.5 7.6-56 13.1-87.4-6.6-32.8-20.5-59.7-60.2-80.2-118.1-13.2 9.5-31.9 22.4-46.4 32.4 25.9 70.3 61 119.7 104.6 147 47.6 29.8 84.9 21.1 121 12.7 31.7-7.4 61.7-14.4 103.3 3.5 33.4 14.4 56.2 37.2 78.3 59.3 18.5 18.5 37.4 37.4 60.8 49.2 15.7 8 33.4 12.8 54.3 12.2 2.1-.1 4.3-.2 6.4-.3 27.3-2.1 54-13.3 79.6-33.2-8.1-19.9-19.1-46.2-25.4-61.5z" fill="url(#SVGID_5_)"/><path d="M850.2 1043.4l-12.9-6.9c.1-.2.1-.4.2-.6.9-3 .5-6.2-1-8.9s-4-4.7-7.1-5.6c-3-.9-6.2-.5-8.9 1s-4.7 4-5.6 7.1-.5 6.2 1 8.9 4 4.7 7.1 5.6c1.2.3 2.4.5 3.6.4 1.8-.1 3.7-.6 5.3-1.5 1.3-.7 2.5-1.7 3.4-2.8l12.9 6.9c.3.2.7.3 1.1.2.7 0 1.4-.4 1.8-1.1.5-.9.2-2.2-.9-2.7zm-21.3-5.9c-1.3.7-2.8.9-4.2.5-1.4-.4-2.6-1.3-3.3-2.6-.7-1.3-.9-2.8-.5-4.2.4-1.4 1.3-2.6 2.6-3.3.8-.4 1.6-.7 2.5-.7.6 0 1.1.1 1.7.2 1.4.4 2.6 1.3 3.3 2.6 1.5 2.7.6 6-2.1 7.5z" fill="#fff"/></g><g id="shoes"><path d="M700.7 930.1c-.1.1-.1.2-.2.3-.4.6-.9 1-1.5 1.4-6.7 4.2-15.5-12.1-43.1-23.7-1.4-.6-2.8-1.2-4.3-1.7-7-2.8-13.9-5.8-14.5-10.9 0-.3-.2-.6-.2-1.1v-.8c.2-1 .8-2.5 2.7-5.1.9-1.3 1.9-2.7 2.9-4.4 1.9-3.2 4-7.2 6.1-12.2.5-1.2 1.8-1.1 3-1.7 1.8-.8 8.4-3.7 16.5-1.9 1.6.4 4.1 1.1 6.8 2.6-1.5 2.4-4.6 8-4.3 15 0 .4 0 .8.1 1.2 0 .3.1.7.1 1 .2 1.5.6 3 1 4.3.3.8.6 1.5.9 2.2 2.6 5.9 7 9.7 8.6 11 9.3 8.2 17.3 6.1 20.2 12.9 1.5 3.5 1.3 8.6-.8 11.6z"/><path class="st11" d="M700.5 930.4c-.4.6-.9 1-1.5 1.4-6.7 4.2-15.5-12.1-43.1-23.7-1.4-.6-2.8-1.2-4.3-1.7-7-2.8-13.9-5.8-14.5-10.9 0-.3-.2-.6-.2-1.1v-.8c4.1 2.2 8.1 4.5 12.2 6.8 5.4 3.1 10.9 6.2 16.5 9.4 12 6.7 23.6 13.7 34.9 20.6zm-29.6-42.5l-5.9-1.5c-.6-.1-.9-.7-.8-1.3.1-.5.7-.9 1.3-.7l5.2 1.3c0 .4 0 .8.1 1.2 0 .4.1.7.1 1zm1.9 6.6l-7-.9c-.6-.1-1-.6-.9-1.2.1-.6.6-1 1.2-.9l5.9.7c.2.8.5 1.6.8 2.3z"/><path d="M483.2 884.8c-.5 4.3-12.4 8.8-22.1 6-5-1.5-7.9-4.5-11.3-7.8-1.9-1.9-3.2-3.6-4.3-5.2-4.7-7.1-6.9-11.9-9.5-16.8-1.1-2.2-2.3-4.1-3.3-5.7-5.8-8.9-10.1-10.9-8.9-15 .4-1.2 1-1.9 2.6-3s4.3-2.6 8.8-5.4c.1 0 .1-.1.1-.1 2.5-1.6 5.8-3.5 12-8 3.6-2.6 6.4-4.9 8.2-6.3 4.9 5.8 9.7 11.5 14.6 17.3-1.9 1.6-4.7 4.5-6.9 8.7-.4.7-.9 1.8-1.5 3.1-.3.6-.5 1.3-.7 2-.4 1.3-.8 2.8-1 4.4-.1.7-.2 1.4-.2 2.1-.1 1.5 0 3 .2 4.6 1.3 8.1 7.6 17.8 15 19 1.6.3 5.4.5 7.3 3.1.1.1.3.4.5.7.2.6.5 1.4.4 2.3z"/><path class="st11" d="M483.2 884.8c-.5 4.3-12.4 8.8-22.1 6-5-1.5-7.9-4.5-11.3-7.8-1.9-1.9-3.2-3.6-4.3-5.2-4.7-7.1-6.9-11.9-9.5-16.8-1.1-2.2-2.3-4.1-3.3-5.7-5.8-8.9-10.1-10.9-8.9-15 .4-1.2 1-1.9 2.6-3 0 0 3 5.4 6.9 12.5 6.5 11.7 15.8 27.7 18.7 30.4 4.4 4.1 14.6 14.2 30.7 2.3.3.6.6 1.4.5 2.3zm-21.6-38.2c-.3.6-.5 1.3-.7 2l-5.7-3c-.5-.3-.7-.9-.4-1.4.3-.5.9-.7 1.4-.4l5.4 2.8zm-1.7 6.4c-.1.7-.2 1.4-.2 2.1l-5.5-1.3c-.6-.1-.9-.7-.8-1.3.1-.6.7-.9 1.3-.8l5.2 1.3z"/><linearGradient id="SVGID_6_" gradientUnits="userSpaceOnUse" x1="417.293" y1="839.054" x2="429.327" y2="839.054" gradientTransform="rotate(-1.968 562.85 656.809) scale(.99999)"><stop offset=".348" stop-color="#bdd3de"/><stop offset=".592" stop-color="#1c4461"/><stop offset=".773" stop-color="#153e5c"/></linearGradient><path d="M435.3 831.9l-2 18-.6 5.4c-5.8-8.9-10.1-10.9-8.9-15 .4-1.2 1-1.9 2.6-3s4.3-2.6 8.8-5.4h.1z" opacity=".09" fill="url(#SVGID_6_)"/><linearGradient id="SVGID_7_" gradientUnits="userSpaceOnUse" x1="628.709" y1="897.895" x2="642.99" y2="897.895" gradientTransform="rotate(-1.968 562.85 656.809) scale(.99999)"><stop offset=".227" stop-color="#153e5c"/><stop offset=".408" stop-color="#1c4461"/><stop offset=".652" stop-color="#bdd3de"/></linearGradient><path d="M651.6 906.3c-7-2.8-13.9-5.8-14.5-10.9 0-.3-.2-.6-.2-1.1v-.8c.2-1 .8-2.5 2.7-5.1.9-1.3 1.9-2.7 2.9-4.4l6.6 16.3 2.5 6z" opacity=".09" fill="url(#SVGID_7_)"/></g><g id="leg_back"><path d="M756.9 695c-.4 1.3-.1.2-8.2 17.8-17.2 37.5-29.6 66.8-34.1 77.6-9.7 23.1-21.6 52.6-34.5 87.6-7.6-.3-15.3-.6-22.9-.9l-16.2-.6c21.1-92.5 29.7-128.2 32.4-138 .1-.5.6-2.2 1.3-4.6.3-1.2.7-2.6 1.1-4.2 1.7-6.5 3.9-15.4 6-26.2 2.7-13.8 4.3-25.2 4.6-28 .3-2.9.3-5.8-.1-8.7-4.2-32.6-49.7-63.9-75.7-109.7-4.3-7.6 6.8-25 21.4-42 6.2-7.2 13.1-14.4 19.6-20.7l35.8-8.6c2.9 6.3 5.6 12.4 8.2 18.3 4.1 9.3 7.9 18.1 11.3 26.2.8 1.8 1.5 3.6 2.2 5.3.6 1.4 1.2 2.9 1.8 4.3 2.7 6.5 5.2 12.6 7.6 18.5 3.4 8.2 6.5 15.9 9.4 23.1 29.5 73.2 35.2 92.5 29 113.5z" fill="#19233d"/><linearGradient id="SVGID_8_" gradientUnits="userSpaceOnUse" x1="613.179" y1="623.102" x2="730.431" y2="623.102" gradientTransform="rotate(-1.968 562.85 656.809) scale(.99999)"><stop offset=".243" stop-color="#19233d"/><stop offset="1" stop-color="#5a142a" stop-opacity=".6"/></linearGradient><path d="M686.4 675.4c3.9-35.9-47.5-68.5-75.8-118.4-4.3-7.6 6.8-25 21.4-42l63.6-11c5 11.4 9.5 21.9 13.5 31.5.6 1.4 1.2 2.9 1.8 4.3 2.7 6.5 5.2 12.6 7.6 18.5 3.4 8.2 6.5 15.9 9.4 23.1-2.8 40.6-13.5 111-53.2 152.4.3-1.2.7-2.6 1.1-4.2 1.7-6.5 3.9-15.4 6-26.2 2.7-13.8 4.3-25.2 4.6-28z" opacity=".2" fill="url(#SVGID_8_)"/><path d="M748.7 712.8c-17.2 37.5-29.6 66.8-34.1 77.6-9.7 23.1-21.6 52.6-34.5 87.6-7.6-.3-15.3-.6-22.9-.9 4.7-9.9 13-28.9 27.3-64.7 21.3-53 47.1-83.6 64.2-99.6z" opacity=".61" fill="#0b1d36"/></g><g id="leg_front"><path d="M646 550.6c-31.1 59.1-7.9 127.9-38.7 166.6-.7.9-1.8 2.2-1.9 2.4-4.8 5.7-13.7 14.6-45 41.6-39.2 33.8-72.1 60.4-94.6 78-4.9-4.9-10.1-10.6-15.3-17.3-3.9-4.9-7.2-9.7-10.1-14.2 27.2-37.4 45-55.3 56.5-64.7 2.7-2.2 11.7-10.5 24.1-21.6 7.6-6.8 13.8-13 18.9-20.9 0 0 3.4-5.3 6.1-11.3 1.6-3.6 3-7.5 4.2-11.8 10.5-36.8 6.1-93.8 6.1-93.8-1.3-16.8-2.4-30.2-3.2-40.9-2.4-32-2.6-40.1-.5-45.1.6-1.4 1-2 1.6-2.9 2.5-3.8 6.2-6.9 10.8-9.2l94.5 11.1c4.9 3.8 8.4 8.1 9.7 12.8 3.2 11.8-9.8 15.8-23.2 41.2z" fill="#153e5c"/><path d="M646 550.6c-31.1 59.1-7.9 127.9-38.7 166.6-.7.9-1.8 2.2-1.9 2.4-4.8 5.7-13.7 14.6-45 41.6-39.2 33.8-72.1 60.4-94.6 78-4.9-4.9-10.1-10.6-15.3-17.3-3.9-4.9-7.2-9.7-10.1-14.2 69.2-22.8 161.2-65.3 164.5-131.5 1.3-26-3.2-32.3 4.8-70.2 5.5-26.2 13.1-39.6 5.8-48.6-6.9-8.4-17.7-2-42.9-8.6-5.5-1.4-12.6-3.3-19.4-6-2.4-32-2.6-40.1-.5-45.1.6-1.4 1-2 1.6-2.9 2.5-3.8 6.2-6.9 10.8-9.2l94.5 11.1c4.9 3.8 8.4 8.1 9.7 12.8 3.1 11.7-9.9 15.7-23.3 41.1z" opacity=".37" fill="#0b1d36"/><linearGradient id="SVGID_9_" gradientUnits="userSpaceOnUse" x1="493.928" y1="708.902" x2="561.023" y2="708.902" gradientTransform="rotate(-1.968 562.85 656.809) scale(.99999)"><stop offset=".348" stop-color="#bdd3de"/><stop offset=".592" stop-color="#1c4461"/><stop offset=".773" stop-color="#153e5c"/></linearGradient><path d="M562.3 695.5c1.4 8.2-36 30.9-65.5 47.5 8.3-7.5 16.3-14.7 24.1-21.6 7.6-6.8 13.8-13 18.9-20.9 0 0 3.4-5.3 6.1-11.3 1.6-3.6 3-7.5 4.2-11.8 5.6 5.1 11.1 11.6 12.2 18.1z" opacity=".09" fill="url(#SVGID_9_)"/></g><g id="tshirt"><path class="st11" d="M725.3 285.1c-1-3.5-2.9-10.2-7.9-16.9-1.2-1.7-2.7-3.4-4.4-5-3.2-3.1-7-5.8-10.9-8.1-7.2-4.3-14.9-7.2-20.4-9.3-1.2-.5-2.2-.8-2.9-1.1-2.4-.6-5.2-1.1-8.2-1.6l-2.1-.3h-.1c-1.8-.3-3.8-.5-5.8-.7-7.1-.8-15.2-1.1-24-.5-1 .1-1.9.2-2.9.2-3.6.8-7.1 1.8-10.3 3.1-4 1.6-7.6 3.7-11 6.4-2.1 1.7-4.1 3.5-6 5.6-.6.6-1.1 1.2-1.7 1.9-7.6 9-14 21.8-20.5 39.2-.3.7-.5 1.4-.8 2.1-4 10.8-8 23.2-12.5 37.6-.2.5-.3 1-.5 1.6 0 .1-.1.2-.1.3-3.8 12.1-7.8 25.5-12.1 40-.2.6-.3 1.2-.5 1.7-2.9 9.8-5.8 20.1-8.8 30.9 1.8.7 3.7 1.3 5.8 1.8 0 .1-.1.2-.1.3 0 .1 0 .1-.1.2-.3.9-.9 2.4-1.6 4.3-.2.6-.5 1.2-.7 1.9-1.6 4.3-3.8 10.1-6.1 16.4 0 0 0 .1-.1.2-6.3 17-13.8 37.4-14.4 39.6-.2.9-.4 1.7-.7 2.6-.2.7-.4 1.5-.5 2.2.3.3.8.8 1.3 1.4 6.1 6.3 26.5 25.7 56.3 37.1h.1c.5.2 1 .4 1.5.5.3.1.7.2 1 .4.9.3 1.7.6 2.5.9l3.9 1.2c.9.3 1.8.5 2.6.8 2.2.6 4.4 1.2 6.7 1.7l1.5.3c1.4.3 2.7.5 4.1.8h.3c2.7.5 5.5.9 8.4 1.2h.1c1.9.2 3.9.3 5.8.5 2 .1 4.1.2 6.2.2h5.6c.5 0 1 0 1.5-.1 25.9-1.6 45.2-11.2 56.2-18-.1-.9-.2-1.8-.4-2.7-.2-1.9-.5-3.7-.7-5.5-.1-.6-.1-1.3-.2-1.9-1.6-13.8-2.5-26.1-2.8-37.2v-1.9c-.4-15.7.4-28.9 2-40.1v-.1c.1-.6.2-1.2.2-1.8.1-.8.2-1.7.4-2.5.1-.8.3-1.7.4-2.5.3-1.8.6-3.6 1-5.3.4-1.9.8-3.8 1.3-5.5.5-2 1-3.9 1.6-5.7.6-2.2 1.3-4.2 2-6.2 1.4-4 2.7-7.7 3.8-11.1.2-.6.4-1.2.6-1.9.6-1.8 1.1-3.6 1.7-5.4 3.4-11.6 5.2-19.9 7.2-29 .2-1.1.5-2.2.7-3.3.1-.6.3-1.3.4-1.9 4.6-20.7 7.2-32 8.3-39.2.1-.7.2-1.3.3-1.9 1-6 .6-9-.5-12.9z"/><path d="M726 297.7c-.1.6-.2 1.2-.3 1.9-4-.8-7.8-2-11.6-3.5-6.7-2.6-10.1-5-13.4-7.3-2.2-1.6-4.3-3-7.3-4.6-8.9-4.4-15.4-3.6-22.2-2.8-6.8.8-13.9 1.7-23.2-3-5.2-2.7-8.3-5.4-11.2-8.1-3.3-3-6.5-5.9-12.8-8.3-5.3-2.1-11.1-3.1-17.2-3.2.6-.7 1.1-1.3 1.7-1.9 5.8.2 11.2 1.4 16.3 3.3 6.7 2.6 9.9 5.5 13.4 8.7 2.8 2.5 5.7 5.2 10.8 7.8 8.7 4.5 15.2 3.7 22 2.8 6.9-.9 14-1.7 23.4 3 3.1 1.6 5.4 3.2 7.6 4.7 3.2 2.3 6.5 4.6 13 7.1 3.5 1.5 7.2 2.6 11 3.4zm-8.5 41.2c-.1.6-.3 1.2-.4 1.9-5.4-.8-10.6-2.3-15.6-4.3-6.5-2.6-9.8-5-13-7.3-2.2-1.6-4.2-3-7.1-4.5-8.6-4.4-14.9-3.6-21.6-2.8-6.6.9-13.5 1.7-22.5-3-5.1-2.7-8-5.4-10.9-8.1-3.2-3-6.3-5.9-12.4-8.3-8.1-3.2-17.3-4.1-27.3-2.4-.3 0-.6.1-.9.1h-.2c.2-.7.5-1.4.8-2.1.4-.1.7-.1 1.1-.2 9.9-1.5 19-.6 27.2 2.7 6.5 2.6 9.6 5.5 13 8.7 2.7 2.6 5.6 5.2 10.4 7.8 8.5 4.5 14.7 3.7 21.4 2.8 6.7-.9 13.6-1.7 22.7 3 3.1 1.6 5.3 3.2 7.4 4.7 3.1 2.3 6.3 4.6 12.6 7.1 4.9 1.9 10 3.3 15.3 4.2zm-10 39.6c-.2.6-.4 1.2-.6 1.9-5.8-.8-11.4-2.3-16.8-4.4-6.6-2.6-9.9-5-13.2-7.3-2.2-1.6-4.2-3-7.2-4.5-8.7-4.4-15.1-3.6-21.9-2.8-6.7.9-13.6 1.7-22.7-3-5.2-2.7-8.1-5.4-11-8.1-3.3-3-6.4-5.9-12.6-8.3-8.4-3.3-17.8-4.1-28.1-2.3-.2 0-.3 0-.5.1-.2 0-.4 0-.6-.1 0-.1.1-.2.1-.3.2-.5.3-1 .5-1.6.4-.1.7-.1 1.1-.2 10.2-1.6 19.7-.8 28.1 2.6 6.5 2.6 9.8 5.5 13.2 8.7 2.8 2.5 5.6 5.2 10.6 7.8 8.6 4.5 14.9 3.7 21.6 2.8 6.7-.9 13.7-1.8 23 3 3.1 1.6 5.3 3.2 7.5 4.7 3.2 2.3 6.4 4.6 12.7 7.1 5.4 1.9 11 3.4 16.8 4.2zm-11 40.7c-.1.6-.2 1.2-.2 1.8v.1c-4.2-.8-8.4-2-12.4-3.5-6.9-2.6-10.4-5-13.8-7.3-2.3-1.6-4.5-3-7.6-4.5-9.2-4.4-15.9-3.6-23.1-2.7-7.1.9-14.3 1.8-23.9-3-5.4-2.7-8.5-5.4-11.5-8-3.4-3-6.7-5.9-13.2-8.3-8.9-3.3-18.9-4.1-29.8-2.2h-.3c-.3 0-.5 0-.7-.2.2-.6.3-1.2.5-1.7.4-.1.7-.1 1.1-.2 10.9-1.7 21-.9 29.9 2.5 6.9 2.6 10.2 5.5 13.8 8.6 2.9 2.5 5.9 5.2 11.1 7.8 9 4.5 15.7 3.7 22.8 2.8 7.1-.9 14.4-1.8 24.1 2.9 3.3 1.6 5.6 3.1 7.9 4.7 3.3 2.3 6.8 4.6 13.4 7.1 3.7 1.3 7.8 2.4 11.9 3.3zm-2.2 43.9c-7.3-.5-16.5-1.9-25.1-5.2-3.8-1.5-8-3.5-8-3.5-2.4-1.3-4.3-2.5-6.1-3.8-2.3-1.6-4.6-3-7.8-4.5-9.4-4.4-16.3-3.6-23.5-2.7-7.2.9-14.6 1.8-24.4-3-5.5-2.7-8.7-5.4-11.8-8-3.5-3-6.8-5.9-13.5-8.3-6.1-2.2-12.8-3.3-19.9-3.2.2-.7.5-1.3.7-1.9 7.1 0 13.7 1.1 19.9 3.3 7 2.6 10.5 5.5 14.1 8.6 3 2.5 6 5.2 11.3 7.8 9.2 4.5 16 3.7 23.3 2.8 7.2-.9 14.7-1.8 24.6 2.9 3.3 1.6 5.7 3.1 8 4.7 1.8 1.2 3.6 2.4 5.9 3.6 0 0 4 2 7.8 3.5 6.9 2.7 15.2 4.4 24.3 5 .2.6.2 1.2.2 1.9zm3.1 39.1h-3.5c-15.1 0-28.3-1.8-36.3-4.9-3.9-1.5-7.9-3.5-8-3.6-2.4-1.3-4.2-2.5-6-3.7-2.3-1.6-4.5-3-7.7-4.5-9.3-4.4-16.1-3.6-23.3-2.7-7.1.9-14.5 1.8-24.2-3-5.5-2.7-8.6-5.4-11.7-8-3.5-3-6.8-5.8-13.4-8.3-7.2-2.7-15.2-3.7-23.7-3 .3-.7.5-1.3.8-2 8.5-.5 16.4.5 23.6 3.2 7 2.6 10.4 5.5 14 8.6 2.9 2.5 6 5.2 11.2 7.8 9.1 4.5 15.9 3.7 23.1 2.8 7.2-.9 14.6-1.8 24.4 2.9 3.3 1.6 5.7 3.1 7.9 4.7 1.8 1.2 3.6 2.4 5.8 3.6 0 0 3.9 2 7.8 3.5 8.4 3.3 22.7 5 38.8 4.8.2.6.3 1.2.4 1.8z" fill="#e4c9c2" opacity=".35"/><linearGradient id="SVGID_10_" gradientUnits="userSpaceOnUse" x1="645.783" y1="402.559" x2="738.856" y2="402.559" gradientTransform="rotate(-1.968 562.85 656.809) scale(.99999)"><stop offset=".006" stop-color="#19233d"/><stop offset="1" stop-color="#df7d56" stop-opacity=".6"/></linearGradient><path d="M716.4 344.1c-2 9.1-3.9 17.5-7.3 29-1.6 5.5-3.5 11.3-6 18.3-.7 1.9-1.4 4-2 6.2-.5 1.8-1.1 3.7-1.6 5.7-.4 1.8-.9 3.6-1.3 5.6-.4 1.7-.7 3.5-1 5.3-.1.8-.3 1.7-.4 2.5-.2 1.4-.4 2.8-.6 4.3-2.8 20.7-3.2 48.6 1.9 86.7.1.9.2 1.8.4 2.7-10.9 6.8-30.2 16.5-56.2 18h-.8l76-260.2c5 6.7 6.9 13.3 7.9 16.9 2.5 9.1 1 13.3-9 59z" opacity=".22" fill="url(#SVGID_10_)"/><path class="st22" d="M702.2 255.2c.1 4.1-.3 10.5-3.2 17.6-.3.6-.7 1.6-1.3 2.9-2.8 5.9-9.6 17.3-21.2 19.1-10.8 1.6-19.7-6.1-22.8-8.8-13.8-11.7-15.5-31.1-14.9-44.4 12.3-.8 23.3.2 31.9 1.6.7.1 1.3.2 1.9.3 2.3.4 4.4.8 6.3 1.3.7.2 1.7.6 2.9 1 5.4 2.2 13.1 5.1 20.4 9.4zm-3.8 255.2c-10.9 6.8-30.2 16.5-56.2 18-.8 0-1.6.1-2.4.1-18.5.8-35.2-2.8-49.7-8.3-32.6-12.4-53.9-34.5-57.6-38.5l1.2-4.8c8.4 6 20.3 13.7 35.1 21.3 4.3 2.2 23.8 12.2 41 17.1 5.1 1.5 13.2 3.4 24 4.2 16 1.3 37.9 0 64.6-9.1z"/></g><g id="hand_right"><path class="st23" d="M882.4 376.1c.3.2.5.4.5.6.1 1.7-8.3 5.4-18.6 6.5h-.3c-6.4.7-9.7 1.1-13.7-.3-6.3-2.1-11.9-7.4-16.2-10.7h-.1c-.7.5-1.3.9-2 1.4-1.4 1-2.7 1.9-4.1 2.9l-.9-.9c-4.5-4.1-9-8.3-13.4-12.4.5-.4 1.1-.7 1.6-1 .3-.2.8-.4 1.4-.7 3.7-1.7 6.9-3.2 9.8-4.5 7.6-3.4 12.7-5 18-5 7.6.1 15.8 3.6 15.9 6.4 0 .8-.6 1.4-.7 1.4-1.9 1.7-5.8-1.8-12.5-2.1-.9 0-5.3-.2-6 1.1v.1c-.3 1.2 2.4 2.5 6.5 6.4 2.1 1.9 3.6 3.7 4.5 4.8.2-.1.3-.2.6-.3 4.5-2.2 23.1-11.1 24.2-9.1.9 1.5-9.1 7.5-16.6 11 7.6-1.3 20.2-5.2 23.4-3.1 1 .6 1.1 1.3.8 1.9-.3.5-1.2 1-2.1 1.5.8.1 1.4.3 1.9.5 2.2 1.4.3 2.7-1.9 3.6z"/><linearGradient id="SVGID_11_" gradientUnits="userSpaceOnUse" x1="848.316" y1="374.708" x2="862.626" y2="374.708" gradientTransform="rotate(-1.968 562.85 656.809) scale(.99999)"><stop offset=".006" stop-color="#19233d"/><stop offset="1" stop-color="#df7d56" stop-opacity=".6"/></linearGradient><path d="M853 370.7s-13.8-3.2-14.6-8.9c-.3-2.5 1.1-3.1 2.7-3v.1c-.3 1.2 2.4 2.5 6.5 6.4 2.1 1.9 3.6 3.7 4.5 4.8.2-.1.3-.2.6-.3l.3.9z" opacity=".09" fill="url(#SVGID_11_)"/><linearGradient id="SVGID_12_" gradientUnits="userSpaceOnUse" x1="835.949" y1="386.083" x2="873.509" y2="386.083" gradientTransform="rotate(-1.968 562.85 656.809) scale(.99999)"><stop offset=".006" stop-color="#19233d"/><stop offset="1" stop-color="#df7d56" stop-opacity=".6"/></linearGradient><path d="M864.3 383.2h-.3c-6.4.7-9.7 1.1-13.7-.3-6.3-2.1-11.9-7.4-16.2-10.7h-.1c-.7.5-1.3.9-2 1.4-1.4 1-2.7 1.9-4.1 2.9l-.9-.9-.7-2.5c.9-.8 8.6-4.7 8.6-4.7l29.4 14.8z" opacity=".22" fill="url(#SVGID_12_)"/><linearGradient id="SVGID_13_" gradientUnits="userSpaceOnUse" x1="823.544" y1="376.107" x2="843.643" y2="376.107" gradientTransform="rotate(-1.968 562.85 656.809) scale(.99999)"><stop offset=".006" stop-color="#19233d"/><stop offset="1" stop-color="#df7d56" stop-opacity=".6"/></linearGradient><path d="M834 372.3c-.7.5-1.3.9-2 1.4-1.4 1-2.7 1.9-4.1 2.9-4.8-4.4-9.6-8.9-14.4-13.3.5-.4 1.1-.7 1.6-1 .3-.2.8-.4 1.4-.7 3.7-1.7 6.9-3.2 9.8-4.5l7.7 15.2z" opacity=".22" fill="url(#SVGID_13_)"/></g><g id="hoody_right_part"><path class="st27" d="M746.2 262.3c-5.9 5.8-11.9 11.6-17.8 17.4-.6.6-1.6.7-2.3.1-2.8-2.2-5.5-4.3-8.3-6.5-2-1.6-4-3.1-6-4.7-3.7-8-9.5-16.1-9.6-16.5.1-.3.1-.5.2-.8 2.8-2.1-1-9.3 2.7-12.4 1.5-1.2 3.4-1.2 4.6-1.1.4 0 .7 0 1.1.1 5.8.8 7.5 6.3 14.4 11.1.4.2.7.5 1.1.7 1.7 1 3.2 2 4.6 2.8.2.1.5.3.7.4 5.2 3 8.6 4.5 12.9 6.2.4.2.8.3 1.1.5 1.2.3 1.5 1.8.6 2.7z"/><path class="st27" d="M832.1 373.7c-4.4 6.4-10.9 15.6-19.1 26.3-1.8 2.3-3.4 4.5-4.9 6.4-5.6 7.3-9.4 12.2-13.5 16.5-8.9 9.7-35.2 38.4-54.2 31.5-7.5-2.7-13.1-11-17.1-19.3-4.2-8.8-6.6-17.7-7.3-20.4-1.2-5-1.9-10.1-4.9-18.4-3.3-9.3-7.3-16.5-10.2-21.2 1.8-5.7 3.5-11.3 5.1-16.8.8-2.6 1.5-5.2 2.2-7.8 2.8-10.2 4.9-20.2 6.1-29.9 1.3-10.5 1.3-20.8-.3-31.2 1.7-8.7 2.9-14.6 3-15 3.6 1.7 9 4.8 14.4 9.9l.6.6c20.8 18.8 27 87.5 27 87.7.6 4.3 1 8 1.2 11.1.2 3.2.4 5.8.4 8 .2 7.4-.7 10.3.9 11.3 3.5 2.2 12.9-8.3 25.9-19.7 9.9-8.6 18.9-15.2 26-20 .5-.4 1.1-.7 1.6-1 .4-.3.8-.5 1.2-.8.1 0 .1.1.2.1 2.5 1.6 5.1 3.5 7.8 5.6 3 2.2 5.6 4.4 7.9 6.5z"/><path d="M832.1 373.7c-4.4 6.4-10.9 15.6-19.1 26.3-1.8 2.3-3.4 4.5-4.9 6.4-5.6 7.3-9.4 12.2-13.5 16.5-8.9 9.7-35.2 38.4-54.2 31.5-7.5-2.7-13.1-11-17.1-19.3-4.2-8.8-6.6-17.7-7.3-20.4-1.2-5-1.9-10.1-4.9-18.4-3.3-9.3-7.3-16.5-10.2-21.2 1.8-5.7 3.5-11.3 5.1-16.8.8-2.6 1.5-5.2 2.2-7.8 2.8-10.2 4.9-20.2 6.1-29.9 1.3-10.5 1.3-20.8-.3-31.2 1.7-8.7 2.9-14.6 3-15 3.6 1.7 9 4.8 14.4 9.9l.6.6c20.8 18.8 27 87.5 27 87.7.6 4.3 1 8 1.2 11.1.2 3.2.4 5.8.4 8 .2 7.4-.7 10.3.9 11.3 3.5 2.2 12.9-8.3 25.9-19.7 9.9-8.6 18.9-15.2 26-20 .5-.4 1.1-.7 1.6-1 .4-.3.8-.5 1.2-.8.1 0 .1.1.2.1 2.4 1.6 6 4.2 7.8 5.6 2 1.4 4.6 3.5 7.9 6.5z" opacity=".2" fill="#19233d"/><path class="st27" d="M729.5 361.7c-6.9 51-13 63.3-17.1 98.3-3.6 31.1-2.9 57-1.7 74.1.5.3.9.8 1 1.5l.1 1.1c.1 1-.7 1.9-1.7 2l-30.3 2.4-5.5.4c-1 .1-1.9-.7-2-1.7l-.1-1.1c-.1-1 .7-1.9 1.7-2l1-.1c1.5-12 3-24 4.5-36.1 2.2-16.8 4.4-33.4 6.7-49.9 0 0 7-50.9 15-75.5.3-.9 2.4-7.5 5.1-16.8.8-2.6 1.5-5.2 2.2-7.8 2.8-10.2 4.9-20.2 6.1-29.9 1.3-10.5 1.3-20.8-.3-31.2 0-.3-.1-.6-.1-.9 0 0-1.2-7.2-3.2-13.4-2.6-8-8.2-17-10.5-20.4-.5-.8-.9-1.3-1-1.4.2-.9.6-2.1 1.5-2.5 4.9-2.3 19.7 19.2 23 24.4 11.2 17.7 12 38.8 5.6 86.5z"/><path class="st22" d="M712.8 349.2c-2.9 13.5-5.5 23.3-5.7 23.8-4.9 18.3-12.4 57.7-24 141.9-.2 1.3-.4 2.5-.5 3.8-1 7.1-2 14.6-3 22.4l-5.5.4c-1 .1-1.9-.7-2-1.7l-.1-1.1c-.1-1 .7-1.9 1.7-2l1-.1c.6-5.2 1.3-10.4 1.9-15.5-9.6 3.6-21.2 6.5-34.5 7.4-.8 0-1.6.1-2.4.1l-6.1-9c11.5.9 26.2.4 43.5-3.3.7-5.2 1.3-10.5 2-15.7 2.2-16.8 4.4-33.4 6.7-49.9 0 0 7-50.9 15-75.5.3-.9 2.4-7.5 5.1-16.8.8-2.6 1.5-5.2 2.2-7.8 2.8-10.2 4.9-20.2 6.1-29.9 1.3-10.5 1.3-20.8-.3-31.2 0-.3-.1-.6-.1-.9-.8-6.3-2.5-11.3-3.2-13.4-.5-1.5-1.2-3.1-1.9-4.7-3.7-8-9.5-16.1-9.6-16.5.1-.3.1-.5.2-.8.4 0 .8-.1 1.2-.2l1.5-.3c6 8.1 10 15.8 12.7 22.6 3.6 9.2 4.8 16.8 5.3 22.1 1.2 13-1.6 25.9-7.2 51.8zm118.4 29.3L813 363.4c-1.1-.9-1.2-2.5-.3-3.6l.1-.2c.9-1.1 2.5-1.2 3.6-.3l18.2 15.1c1.1.9 1.2 2.5.3 3.6l-.1.2c-.9 1-2.6 1.2-3.6.3z"/><linearGradient id="SVGID_14_" gradientUnits="userSpaceOnUse" x1="730.88" y1="438.537" x2="816.601" y2="438.537" gradientTransform="rotate(-1.968 562.85 656.809) scale(.99999)"><stop offset=".243" stop-color="#19233d"/><stop offset="1" stop-color="#5a142a" stop-opacity=".6"/></linearGradient><path d="M808.1 406.5c-5.6 7.3-9.4 12.2-13.5 16.5-8.9 9.7-35.2 38.4-54.2 31.5-7.5-2.7-13.1-11-17.1-19.3 11.5 4.7 20.6 4.6 26.2 4 11.6-1.3 21.2-7.5 40-19.7 7.9-5.2 14.3-9.8 18.6-13z" opacity=".2" fill="url(#SVGID_14_)"/></g><g id="neck"><path class="st23" d="M699.5 252.8c-.1.3-.1.5-.2.8-.3 1.4-.7 2.8-1.2 4.2-1.8 6-3.2 10.8-4.5 14.5-.3.7-.5 1.4-.8 2.1-1.6 4.2-3.2 6.8-5.2 8.4-6.7 5-17.3 6.2-25.5 1.5-8.1-4.6-10.4-13.1-11-15.2-1.8-6.6-.2-10.8 2.8-23.7 5.7-24.8 3.8-27.4 7.8-30.1 10.2-7 33.4 2.8 37.7 16.1.1.3.1.5.2.8 2.2 7 1.6 13.5-.1 20.6z"/><linearGradient id="SVGID_15_" gradientUnits="userSpaceOnUse" x1="673.57" y1="258.974" x2="714.18" y2="258.974"><stop offset=".006" stop-color="#19233d"/><stop offset="1" stop-color="#df7d56" stop-opacity=".6"/></linearGradient><path d="M699.3 253.6c-.3 1.4-.7 2.8-1.2 4.2-1.8 6-3.2 10.8-4.5 14.5-4.7-3-12.3-8.9-17.2-18.9-1.3-2.7-2.2-5.3-2.9-7.7 3.3 1.4 6.8 2.8 10.7 4 5.5 1.7 10.5 3 15.1 3.9z" opacity=".16" fill="url(#SVGID_15_)"/></g><g id="head_general"><path id="head" class="st23" d="M716.7 221.5c-.5 3.1-1 4.8-1.7 8.3-2.4 11.5-4.1 17.5-6.9 19.8-1.7 1.3-3.6 2.3-5.9 2.9-.5.1-.9.2-1.5.3-.8.2-1.5.3-2.1.3-1.7.2-3.5.2-5.3.1-2.9-.2-5.9-.7-8.9-1.5-6.5-1.7-13.1-4.9-18.8-9.2-4-3-7.4-6.5-10.1-10.5 0 0-1.6-2.3-2.8-5-3.9-8.3-9.3-49.7 17.2-70.2 8.2-6.3 24.4-14.4 36.1-8 3.4 1.8 5.2 4.3 7 6.5 12.1 16.4 8.1 40.3 3.7 66.2z"/><path id="mouth" d="M698.2 237.6h-.2c-1.7-.6-3.5-1.2-5.2-1.8-2.7-.9-5.3-1.8-8-2.7-.3-.1-.5-.4-.4-.7.1-.3.4-.5.7-.4 2.7.9 5.3 1.8 8 2.7 1.8.6 3.5 1.2 5.3 1.8.3.1.5.4.4.7-.2.3-.4.4-.6.4z"/><g id="eyes"><linearGradient id="SVGID_16_" gradientUnits="userSpaceOnUse" x1="561.729" y1="408.612" x2="566.891" y2="408.612" gradientTransform="matrix(.93 .3675 .3675 -.93 11.33 370.158)"><stop offset=".001"/><stop offset=".811"/></linearGradient><path d="M683.9 196.5c-.5 1.4.1 2.9 1.4 3.4 1.3.5 2.8-.2 3.4-1.5.5-1.4-.1-2.9-1.4-3.4-1.3-.5-2.8.2-3.4 1.5z" fill="url(#SVGID_16_)"/><linearGradient id="SVGID_17_" gradientUnits="userSpaceOnUse" x1="109.738" y1="178.607" x2="114.571" y2="178.607" gradientTransform="scale(-1 1) rotate(-6.557 -108.098 7367.108)"><stop offset=".001"/><stop offset=".811"/></linearGradient><path d="M712.6 200.7c.2-1.4-.8-2.6-2.1-2.7-1.3-.1-2.5.8-2.7 2.2-.2 1.4.8 2.6 2.1 2.7 1.3.2 2.5-.8 2.7-2.2z" fill="url(#SVGID_17_)"/></g><g id="brows"><linearGradient id="SVGID_18_" gradientUnits="userSpaceOnUse" x1="65.58" y1="262.401" x2="81.527" y2="262.401" gradientTransform="matrix(-.9698 .4384 .4183 .9085 648.666 -83.887)"><stop offset=".001"/><stop offset=".811"/></linearGradient><path fill="url(#SVGID_18_)" d="M678.9 188.7l15.5-6.4.9 2.5-15.5 6.4z"/><linearGradient id="SVGID_19_" gradientUnits="userSpaceOnUse" x1="132.882" y1="149.089" x2="148.576" y2="149.089" gradientTransform="matrix(-.7965 -.3386 -.4059 .9135 888.947 100.067)"><stop offset=".001"/><stop offset=".811"/></linearGradient><path fill="url(#SVGID_19_)" d="M710.9 184.3l12 6.2-1.2 2.4-12-6.2z"/></g><path id="nose" d="M701.6 198.9c.5 7.2 1.9 12.4 3.2 16 .8 2.1 1.8 4.5.7 6.2-1.5 2.3-6.1 1.5-6.8 1.3-3.7-.6-6-2.9-6.8-3.8 3.3-6.6 6.5-13.1 9.7-19.7z" fill="#9b524e"/><path id="hair" d="M654.9 234.9c7.3-19.6 2.8-36.2 7.8-38.2 2.7-1.1 4.8 3.5 8 2.5 5.7-1.8 1-17.3 9.6-27.4 5.5-6.5 15.1-9.3 22.4-8.8 8.3.5 10.9 5 16.4 3 7.3-2.7 9.6-13 9.9-14.4 1.9-8.3-1.2-15-2.2-17-2.5 1.6-6.5 3.9-11.6 6.1-4.9 2.1-10.6 4.6-12 2.8-1-1.3.9-3.6 1.6-7.4 1.1-5.6-1.1-10.7-3.1-14.1-22.4 16.5-27.9 19.6-28.3 19.1-.4-.6 5.5-4.7 5.2-10.5-.2-3.2-1.7-5.5-2.4-6.4-23 25.9-28.8 50.4-30.7 62.5-3.8 25.4 1 55 5.4 55.2 1.3-.1 2.5-2.9 4-7z"/><g id="ear"><path class="st23" d="M666.1 206.4c-.7 1.3-1.6 2.5-2.8 3.5-4.6 3.8-11.3 3.1-15-1.6-3.6-4.7-2.8-11.6 1.9-15.4l.2-.2c4.6-3.6 11.2-2.8 14.7 1.8 2.7 3.4 3 8.1 1 11.9z"/><path d="M666.1 206.4l-15.7-13.7c4.6-3.6 11.2-2.8 14.7 1.8 2.7 3.4 3 8.1 1 11.9z" opacity=".17" fill="#9b524e"/></g></g><g id="smartphone"><path class="st37" d="M679.9 402.2c1.2-.4 2.4-.8 3.6-1.1-5.4 8.7-10.8 17.4-16.1 26-.3.4-.4.9-.4 1.4l-.6-3.3c-.1-.6 0-1.2.3-1.7l13.2-21.3z"/><path class="st37" d="M702.2 378.7c-.1-.1-.1-.2-.2-.3-.3-.3-1.5-1.5-3.3-1.6-1.9-.1-3.7.9-4.8 2.7-3 4.9-6.1 9.8-9.1 14.7-1.7 2.7-3.3 5.3-4.9 8 1.2-.4 2.4-.8 3.6-1.1 1.5-2.4 3-4.8 4.4-7.2 3.1-5 6.2-10.1 9.3-15.1 1.1-1.6 3.6-1.6 5-.1.1.1.1.1 0 0z"/><path d="M712.7 392c-.3-.3-.5-.6-.7-1-.2-.3-.5-.6-.8-.9-.1-.1-.2-.2-.3-.4-2-2.6-5.3-6.8-7.9-10-.2-.2-.4-.5-.6-.7-.1-.1-.1-.2-.2-.2-1.4-1.6-4-1.6-5 0-3.1 5-6.2 10.1-9.3 15.1-1.5 2.4-3 4.8-4.4 7.2-5.4 8.7-10.8 17.4-16.1 26-.3.4-.4.9-.4 1.4v.5c0 .1 0 .2.1.3 0 .2.1.3.2.5s.2.3.3.4c.1.1.2.3.3.4l.4.4c4.2 3.1 8.4 6.2 12.6 9.2 1.5 1.1 3.5.9 4.4-.5 9.2-14.8 18.4-29.7 27.6-44.5.7-1 .6-2.2-.2-3.2z" fill="#302c34"/><linearGradient id="SVGID_20_" gradientUnits="userSpaceOnUse" x1="592.211" y1="368.314" x2="627.707" y2="368.314" gradientTransform="rotate(15.677 502.333 682.064)"><stop offset="0" stop-color="#002544"/><stop offset=".917" stop-color="#271c41"/></linearGradient><path d="M713 395.2c-9.2 14.8-18.4 29.7-27.6 44.5-.9 1.4-2.9 1.6-4.4.5-4.2-3.1-8.4-6.1-12.6-9.2-.2-.1-.3-.2-.4-.4-.1-.1-.3-.3-.3-.4-.1-.1-.2-.3-.3-.4-.1-.1-.1-.3-.2-.5-.1-.1-.1-.2-.1-.3v-.5c0-.5.1-1 .4-1.4 10-16.1 19.9-32.2 29.9-48.3 1-1.6 3.5-1.6 5 0 .1.1.1.1.1.2.2.2.4.5.6.7 2.6 3.4 5.3 6.7 7.9 10 .1.1.2.3.3.4.2.3.5.6.7 1 .2.3.5.6.7 1 .8.9.9 2.1.3 3.1z" opacity=".45" fill="url(#SVGID_20_)"/></g><g id="hand_left"><path class="st23" d="M714 398.1c-.7-1.8-6.1-1.2-8.1-1-1.5.2-3.1.3-4.8.5-.6.1-1.2.1-1.8.2-2.1.3-4.2.5-6.5.8-1 .1-2 .3-3.1.4-2.8.4-5.7.8-8.6 1.1 1.2-2 2.4-4 3.7-5.9-1.3.1-2.7.2-4.2.2-5.8.1-8.3-.5-13.2-.2-3.3.2-7.9.9-13.3 3v.1c.1 1.5.3 3.8.6 6.5v.5c.2 1.9.3 3.9.5 5.8v.2c.3 3.9.6 7.2.6 7.7 8.1 2.2 13.7 4.1 17.6 5.7 1.8.7 3.2 1.3 4.3 1.9 1.5.8 2.5 1.4 3.2 2 .4.3 2.3 1.9 5.1 2.5.9.2 4.3.9 6.3-1.1 1.1-1.1 1.7-2.9 1.4-3-.1-.1-.3.3-.7.5-.7.4-1.7.5-3.9-.3-1.3-.5-3.1-1.3-5.3-3 0-.2.1-.5.2-.8.8-1.3 3.1-1 7.4-1.1h1.3c.3 0 .6 0 .9-.1.5 0 1-.1 1.4-.1.3 0 .6-.1.8-.1.1 0 .3-.1.4-.1.3-.1.5-.1.8-.2.3-.1.5-.2.7-.3.2-.1.5-.2.7-.3.6-.3 1.4-1 2-2 .9-1.4 1.1-3.2.9-3.8.5-.1 1.1-.3 1.7-.5.5-.2.9-.5 1.3-.8 3.2-2.3 3.8-9 3.1-9.3-.3-.1-.6 1.4-2.5 3.3-1 1-2.1 1.7-2.9 2.2h-.4c-.3 0-.9-.1-1.5-.1h-.5c-.3 0-.5 0-.8-.1-.3 0-.5 0-.8-.1-.5 0-.9-.1-1.4-.1h-.3c-.6-.1-1.2-.1-1.8-.2-.6-.1-1.2-.1-1.8-.2-3-.3-5.5-.7-5.6-.9v-.1s0-.1.1-.2c.9-1.5 4.5-2.6 8.2-3.3 1.4-.3 2.7-.5 3.9-.6 1.8-.3 3.3-.4 4-.5.1 0 2-.4 5.4-1 2.2-.4 3.7-.6 4.6-1.9.3 0 1-1 .7-1.8zm-24.4 15.6c2.5 0 5.5.3 7.6.5.8.1 1.4.2 1.9.2.3 0 1 .1 1.9 0-.3.4-.8 1.1-1.5 1.6s-1.2.6-2.6.6c-1.2 0-3-.1-6-.3-.9 0-1.8-.1-2.7-.3-1.1-.2-2.1-.6-2.8-1.4-.2-.3-.3-.4-.3-.5.1-.3 2-.4 4.5-.4z"/><linearGradient id="SVGID_21_" gradientUnits="userSpaceOnUse" x1="663.359" y1="418.671" x2="685.689" y2="418.671" gradientTransform="rotate(-1.968 562.85 656.809) scale(.99999)"><stop offset=".006" stop-color="#19233d"/><stop offset="1" stop-color="#df7d56" stop-opacity=".6"/></linearGradient><path d="M677.8 425.6c-1.1-.6-2.6-1.2-4.3-1.9-3.9-1.6-9.5-3.4-17.6-5.7 0-.5-.3-3.8-.6-7.7v-.2c-.2-1.9-.3-3.9-.5-5.8.2.1 8.6 7.7 12.2 11.2 3.6 3.5 7.2 6.9 10.8 10.1z" opacity=".22" fill="url(#SVGID_21_)"/><linearGradient id="SVGID_22_" gradientUnits="userSpaceOnUse" x1="662.974" y1="405.81" x2="701.638" y2="405.81" gradientTransform="rotate(-1.968 562.85 656.809) scale(.99999)"><stop offset="0" stop-color="#df7d56" stop-opacity=".6"/><stop offset=".724" stop-color="#19233d"/></linearGradient><path d="M692.8 398.6c-12.5 3.9-25.1 7.8-37.6 11.7v-.2c-.2-2-.4-4.3-.5-6.3-.2-2.6-.4-5-.6-6.5v-.1c5.5-2.1 10-2.8 13.3-3 4.9-.3 7.4.3 13.2.2 1.5 0 2.9-.1 4.2-.2-1.2 2-2.5 4-3.7 5.9 2.9-.4 5.8-.8 8.6-1.1 1.1-.1 2.1-.2 3.1-.4z" opacity=".09" fill="url(#SVGID_22_)"/><linearGradient id="SVGID_23_" gradientUnits="userSpaceOnUse" x1="711.968" y1="422.378" x2="687.036" y2="413.547"><stop offset=".006" stop-color="#19233d"/><stop offset="1" stop-color="#df7d56" stop-opacity=".6"/></linearGradient><path d="M704.6 413c-.4.3-.8.6-1.3.8-.6.3-1.1.4-1.7.5.2.6 0 2.4-.9 3.8-.6 1-1.4 1.7-2 2-.2.1-.5.2-.7.3-.2.1-.5.2-.7.3-.2.1-.5.2-.8.2-.4.1-.8.2-1.3.2-.5.1-.9.1-1.4.1-.3 0-.6 0-.9.1h-1.3c-4.4.1-6.7-.2-7.4 1.1-.2.3-.2.6-.2.8 2.1 1.6 4 2.5 5.3 3 2.2.8 3.2.8 3.9.3.4-.2.6-.5.7-.5.2.1-.3 1.9-1.4 3-2 2-5.4 1.2-6.3 1.1-2.9-.6-4.8-2.2-5.1-2.5 1.7-2.7 4.3-7 7.1-11.5.9.2 1.8.2 2.7.3 3 .2 4.8.3 6 .3 1.4 0 2-.1 2.6-.6.8-.6 1.2-1.3 1.5-1.6-.8.1-1.5 0-1.9 0-.5 0-1.1-.1-1.9-.2-2.1-.2-5.2-.4-7.6-.5 1.1-1.8 2.2-3.6 3.3-5.3.6.1 1.2.1 1.8.2.6.1 1.2.1 1.8.2h.3c.8.1 1.5.1 2.2.2.3 0 .5 0 .8.1h.5c.7.1 1.2.1 1.5.1h.4c.8-.4 1.8-1.1 2.9-2.2 1.9-1.9 2.2-3.4 2.5-3.3.8.2.2 7-3 9.2z" opacity=".17" fill="url(#SVGID_23_)"/></g><g id="hoody_left_part"><path class="st27" d="M675.1 230.1c-.3 1-.7 1.9-1 2.9 0 0-2 3.2-5.6 9.9-.4.7-.8 1.5-1.2 2.3l-.6 1.2c-.2.4-.4.8-.6 1.3l-.4.8c-.5 1-.9 1.9-1.3 2.7v.1c-.1.2-.2.3-.2.5-.7 1.4-1.3 2.8-1.9 4.2-.1.1-.1.3-.2.4-.1.3-.3.7-.4 1-.3.6-.5 1.2-.8 1.9-.9 2.2-1.6 4.3-2.3 6.4-.2.7-.5 1.4-.7 2-.1.3-.2.5-.2.8-.1.5-.3.9-.4 1.4l-.3.9c-.7 2.3-1.2 4.5-1.8 6.8-.6 2.6-1.1 5.2-1.6 7.8-.1.7-.3 1.5-.4 2.2-.4 2.6-.8 5.2-1.1 7.7-.3 2.2-.6 4.5-.8 6.7-.6 5.3-1.2 10.7-2 16.4-.2 1.4-.4 2.8-.6 4.3-.2 1-.3 2.1-.5 3.2v.3c-.3 2.1-.7 4.2-1.1 6.4 0 .2-.1.4-.1.7 0 .2-.1.5-.1.7-.1.4-.1.7-.2.9-2.6 13.1-7.4 32.2-17.8 55 0 .1-.1.2-.2.4-.1.1 0 .3 0 .4l.1.1s.1 0 .1.1c.8.3 1.6.5 2.4.7.1 0 .3.1.4.1 2.3.9 5.6 1.9 9.8 2.6 7 1.2 11 .4 12.6 3 .5.7.2.8.6 6.6.1.8.2 2.6.5 6.3.7 7.7.7 7.6.6 7.9-.7 1.9-3.4 4.9-24.8 6.4-3.7.3-6.2.3-7.9.4h-2.3c-1.4 0-1.9-.1-2.4 0-.2 0-.4.1-.7.2-3.2 8.9-5.6 16.2-7 20.8-6.6 21.4-8.8 34.3-17.3 63.9-.4 1.4-.8 2.9-1.3 4.4-.1.5-.2.8-.3 1l-1.5 5.2-.1.4-4.4 14.8v.1c0 .1 0 .2.1.3l.1.1c.5.2.8.6 1.1 1 0 0 0 .1.1.1.3.6.3 1.3 0 1.9l-.1.3c-.5 1.1-1.9 1.7-3 1.2l-6.3-2.8-59.8-27-.3-.2c-.8-.3-1.2-1-1.3-1.8v-.5c0-.2.1-.5.2-.7l.3-.6c.4-.8 1.2-1.2 2.1-1.1.2 0 .4 0 .4-.2 3.4-7.5 6.7-15 10-22.7.5-1.2 1.1-2.5 1.6-3.7 0-.1.1-.2.1-.3.8-1.9 3-7.1 5.5-13.3 4.1-10 9.2-22.6 11.5-28.5 0 0 0-.1.1-.1 2.9-7.5 5.8-14.9 8.5-22.3v-.1c0-.1 0-.1-.1-.2 0 0 0-.1-.1-.1 0 0-.1-.1-.2-.1-.6-.2-1.2-.3-1.7-.5-1.3-.4-2.5-.8-3.6-1.2-.2-.1-.4-.2-.6-.2h-.1c-27.9-10-34.4-25.2-36.1-29.7-3.4-9.4-2.3-19.4 1.8-29.7 6.1-15.6 18.8-32.2 32.7-49.5 1.4-1.8 2.9-3.6 4.3-5.4 17.5-21.7 34.8-37.4 47.5-47.7.1-.1.2-.3.1-.4v-.1l-1.7-8.4v-.2s0-.1.1-.1l.1-.1s.1 0 .1-.1h.1c13.1-3.1 27.6-5.9 43.4-7.9 6.7-.9 19.3-1.8 26-2.3 2.3-.2 3.9-.3 4.3-.4 1-.1 1.7-.3 2.1-.3z"/><linearGradient id="SVGID_24_" gradientUnits="userSpaceOnUse" x1="569.447" y1="327.862" x2="618.245" y2="350.56" gradientTransform="rotate(-1.968 562.85 656.809) scale(.99999)"><stop offset=".109" stop-color="#19233d" stop-opacity=".7"/><stop offset=".707" stop-color="#5a142a" stop-opacity=".6"/></linearGradient><path d="M581.4 363.1s-20.6-4.6-18.5-13.2c2.1-8.6 38.7-29.9 38.7-29.9l-20.2 43.1z" opacity=".2" fill="url(#SVGID_24_)"/><path class="st22" d="M674.1 233s-2 3.2-5.6 9.9c-.4.7-.8 1.5-1.2 2.3l-.6 1.2c-.2.4-.4.8-.6 1.3l-.4.8c-.5 1-.9 1.9-1.3 2.7v.1c-.1.2-.2.3-.2.5-.7 1.4-1.3 2.8-1.9 4.2-.1.1-.1.3-.2.4-.1.3-.3.7-.4 1-.3.6-.5 1.2-.8 1.9-.9 2.2-1.6 4.3-2.3 6.4-.2.7-.5 1.4-.7 2-.1.3-.2.5-.2.8-.1.5-.3.9-.4 1.4l-.3.9c-.7 2.3-1.2 4.5-1.8 6.8-.6 2.6-1.1 5.2-1.6 7.8-.1.7-.3 1.5-.4 2.2-.4 2.6-.8 5.2-1.1 7.7-.3 2.2-.6 4.5-.8 6.7-.6 5.3-1.2 10.7-2 16.4-.2 1.4-.4 2.8-.6 4.3-.2 1-.3 2.1-.5 3.2v.3c-.5 2.6-.8 4.8-1.1 6.4 0 .2-.1.4-.1.7 0 .2-.1.5-.1.7-.1.4-.1.7-.2.9-2.6 13.1-7.4 32.2-17.8 55-.1.1-.1.2-.2.4 0 .1-.1.2-.1.3-.7-.2-1.3-.4-2-.6-1.1-.3-2.3-.6-3.4-1 10.8-22.9 15.8-42.1 18.5-55.2 5.7-28.5 3.7-46.5 14.4-75.7.3-.8.6-1.5.8-2.2 2-5.1 4-9.8 5.9-13.8 2.2-4.6 4.3-8.4 6-11.3 1.8-.2 3.3-.5 4.3-.7 1.1-.2 1.8-.4 2.1 0 .4.6-.6 2.1-1.1 2.9zm-55.3 191.7c-8.9 29.8-17.7 59.7-26.6 89.5 0 0-.3 1-.3 1.1l-1.6 5.6-4.4 14.8v.2c0 .1.1.2.2.3.4.2.8.5 1 .8 0 0 0 .1.1.1.3.6.4 1.3.1 2l-.1.3c-.5 1.1-1.9 1.7-3 1.1l-6.4-2.9v-.1c9.5-34.8 16.4-53.8 27.7-90.7 1.6-5.2 4-13.1 6.9-22.8.8.1 1.7.2 2.6.3 1.2.3 2.5.4 3.8.4zm33.6-4.7l-.8-23.6c0-1.4 1.1-2.6 2.4-2.6h.2c1.4 0 2.6 1.1 2.6 2.4l.8 23.6c0 1.4-1.1 2.6-2.4 2.6h-.2c-1.4.1-2.6-1-2.6-2.4z"/><linearGradient id="SVGID_25_" gradientUnits="userSpaceOnUse" x1="599.025" y1="243.223" x2="675.244" y2="243.223"><stop offset=".109" stop-color="#19233d" stop-opacity=".7"/><stop offset=".707" stop-color="#5a142a" stop-opacity=".6"/></linearGradient><path d="M674.1 233s-2 3.2-5.6 9.9c-.4.7-.8 1.5-1.2 2.3l-.6 1.2c-.2.4-.4.8-.6 1.3l-.4.8c-.5 1-.9 1.9-1.3 2.7v.1c-.1.2-.2.3-.2.5-.7 1.4-1.3 2.8-1.9 4.2-.1.1-.1.3-.2.4l-5.1-.5-42.2-4.6-13.8-1.5-1.7-8.4v-.2s0-.1.1-.1l.1-.1s.1 0 .1-.1h.1c13.1-3.1 27.6-5.9 43.4-7.9 6.7-.9 19.3-1.8 26-2.3 1.8-.2 3.3-.5 4.3-.7 1.1-.2 1.8-.4 2.1 0 .1.7-.9 2.2-1.4 3z" opacity=".2" fill="url(#SVGID_25_)"/><linearGradient id="SVGID_26_" gradientUnits="userSpaceOnUse" x1="526.547" y1="327.382" x2="560.906" y2="327.382" gradientTransform="rotate(-1.968 562.85 656.809) scale(.99999)"><stop offset=".601" stop-color="#bdd3de"/><stop offset=".98" stop-color="#153e5c"/></linearGradient><path d="M548.8 303.5c-.7 8.4-2.2 18.2-5.1 28.6C539 349 527.2 353 516.1 353c6.1-15.6 18.8-32.3 32.7-49.5z" opacity=".05" fill="url(#SVGID_26_)"/><linearGradient id="SVGID_27_" gradientUnits="userSpaceOnUse" x1="561.096" y1="425.445" x2="560.888" y2="481.824"><stop offset=".243" stop-color="#19233d"/><stop offset="1" stop-color="#5a142a" stop-opacity=".6"/></linearGradient><path d="M592.6 422.6c0 1.7-1.4 35.8-30.8 52.6-8.7 5-18.3 7.6-28.1 7.9h-4.5c.5-1.2 1.1-2.5 1.6-3.7 0-.1.1-.2.1-.3.8-1.9 3-7.1 5.5-13.3 4.1-10 9.2-22.6 11.5-28.5 0 0 0-.1.1-.1 3.9-10.6 7.4-19.9 8.4-22.7 3.5 1.1 7.2 2.1 11 3.1 9.2 2.3 17.6 3.9 25.2 5z" opacity=".09" fill="url(#SVGID_27_)"/></g></g></g></svg>